<svg id="Layer_1" data-name="Layer 1" xmlns="http://www.w3.org/2000/svg" xmlns:xlink="http://www.w3.org/1999/xlink" viewBox="0 0 702.94 211.55"><defs><style>.cls-1{font-size:112.46px;fill:#333;font-family:AloeveraDisplay-Light, Aloevera Display;font-weight:300;}.cls-2{letter-spacing:-0.03em;}.cls-3{letter-spacing:-0.06em;}.cls-4{letter-spacing:0em;}.cls-5{font-size:30.5px;fill:#548d73;font-family:AloeveraDisplay-Medium, Aloevera Display;font-weight:500;letter-spacing:0.25em;}.cls-6{fill:url(#linear-gradient);}</style><linearGradient id="linear-gradient" x1="128.99" y1="501.74" x2="350.38" y2="501.74" gradientUnits="userSpaceOnUse"><stop offset="0" stop-color="#4cc18c"/><stop offset="0.24" stop-color="#4abd89"/><stop offset="0.49" stop-color="#45b080"/><stop offset="0.75" stop-color="#3b9b71"/><stop offset="1" stop-color="#2f7f5d"/></linearGradient></defs><text class="cls-1" transform="translate(258.51 128.08)">Mos<tspan class="cls-2" x="206.36" y="0">e</tspan><tspan class="cls-3" x="271.47" y="0">f</tspan><tspan class="cls-4" x="315.33" y="0">ak</tspan></text><text class="cls-5" transform="translate(317.75 169)">Health at hand</text><path class="cls-6" d="M274.23,414.68A21.69,21.69,0,1,0,273,425.46a86.84,86.84,0,1,1-106.65,93.05h.28c21.22,0,38.12-19.78,47-55.68a13.77,13.77,0,0,0-10.51-16.78l-6.73-1.43a7.45,7.45,0,1,0-2.3,10.53l6.79,1.45a3,3,0,0,1,2.28,3.64c-4,15.95-16,52.44-42,46.9S139,463.39,141.89,447.21a3,3,0,0,1,1.27-1.95,3,3,0,0,1,2.3-.45l7.38,1.57a7.43,7.43,0,1,0,2.24-10.54l-7.38-1.57a13.77,13.77,0,0,0-16.42,11.05c-6.88,38.71,1.92,64.42,24.12,71.4a97.61,97.61,0,1,0,118.83-102Zm-21.47,15.49a12.51,12.51,0,1,1,12.51-12.51A12.51,12.51,0,0,1,252.76,430.17Z" transform="translate(-128.99 -395.97)"/><path class="cls-6" d="M293.36,495.1A23.35,23.35,0,0,0,271.13,479a23.34,23.34,0,0,0-18.37,8.93,23.39,23.39,0,0,0-24.56-8.1,23.58,23.58,0,0,0-16,15.31c-2.87,8.8.18,17.38,6,24.21,6.54,7.72,13,15.5,19.53,23.24l6.09,7.25a11.76,11.76,0,0,0,18,0l6.09-7.25c6.51-7.74,13-15.52,19.53-23.24C293.18,512.48,296.22,503.9,293.36,495.1Z" transform="translate(-128.99 -395.97)"/></svg>